<?xml version="1.0" encoding="UTF-8" standalone="no"?>
<!-- Created with Inkscape (http://www.inkscape.org/) -->

<svg
   xmlns:dc="http://purl.org/dc/elements/1.1/"
   xmlns:cc="http://creativecommons.org/ns#"
   xmlns:rdf="http://www.w3.org/1999/02/22-rdf-syntax-ns#"
   xmlns:svg="http://www.w3.org/2000/svg"
   xmlns="http://www.w3.org/2000/svg"
   xmlns:sodipodi="http://sodipodi.sourceforge.net/DTD/sodipodi-0.dtd"
   xmlns:inkscape="http://www.inkscape.org/namespaces/inkscape"
   width="82.93866"
   height="19.76956"
   viewBox="0 0 21.944187 5.2306958"
   version="1.1"
   id="svg34186"
   inkscape:version="0.92.0 r15299"
   sodipodi:docname="loves.svg">
  <defs
     id="defs34180" />
  <sodipodi:namedview
     id="base"
     pagecolor="#ffffff"
     bordercolor="#666666"
     borderopacity="1.0"
     inkscape:pageopacity="0.0"
     inkscape:pageshadow="2"
     inkscape:zoom="9.7878098"
     inkscape:cx="40.969329"
     inkscape:cy="4.9656231"
     inkscape:document-units="mm"
     inkscape:current-layer="layer1"
     showgrid="false"
     fit-margin-top="0"
     fit-margin-left="0"
     fit-margin-right="0"
     fit-margin-bottom="0"
     units="px"
     inkscape:window-width="1280"
     inkscape:window-height="744"
     inkscape:window-x="-4"
     inkscape:window-y="-4"
     inkscape:window-maximized="1" />
  <metadata
     id="metadata34183">
    <rdf:RDF>
      <cc:Work
         rdf:about="">
        <dc:format>image/svg+xml</dc:format>
        <dc:type
           rdf:resource="http://purl.org/dc/dcmitype/StillImage" />
        <dc:title></dc:title>
      </cc:Work>
    </rdf:RDF>
  </metadata>
  <g
     inkscape:label="Layer 1"
     inkscape:groupmode="layer"
     id="layer1"
     transform="translate(-81.386388,-215.97598)">
    <g
       id="g34318"
       transform="translate(0.13229154,-0.13229337)">
      <g
         transform="matrix(0.35277777,0,0,-0.35277777,91.127041,219.91046)"
         id="g12458">
        <path
           inkscape:connector-curvature="0"
           id="path12460"
           style="fill:#000000;fill-opacity:1;fill-rule:nonzero;stroke:none"
           d="m 0,0 c -0.719,0 -1.705,-0.049 -2.538,-0.049 h -0.763 v 6.428 c 0.025,0.673 0.896,0.711 0.923,1.15 v 0.618 c -0.113,0.605 -0.595,0.68 -0.99,0.677 -0.116,0 -0.228,-0.006 -0.323,-0.006 h -2.484 c -0.094,0 -0.206,0.006 -0.323,0.006 -0.394,0.003 -0.877,-0.072 -0.99,-0.677 V 7.529 C -7.461,7.09 -6.589,7.052 -6.565,6.379 V 5.948 h 0.001 v -6.387 c 0.026,-0.287 -1.15,-0.595 -1.171,-1.059 v -0.629 c 0,-0.178 0.025,-0.307 0.115,-0.393 0.091,-0.084 0.231,-0.113 0.443,-0.113 h 5.544 c 0.021,0.003 0.036,0.003 0.05,0.003 0.424,0.015 0.702,-0.797 1.564,-0.803 0.062,0 0.127,0.004 0.197,0.015 0.697,0.022 0.708,0.908 0.742,0.98 0.106,0.275 0.001,1.393 0.108,2.243 10e-4,0.004 10e-4,0.008 10e-4,0.011 C 0.99,0 0.589,-0.014 0,0" />
      </g>
      <g
         transform="matrix(0.35277777,0,0,-0.35277777,92.598336,220.23794)"
         id="g12462">
        <path
           inkscape:connector-curvature="0"
           id="path12464"
           style="fill:#000000;fill-opacity:1;fill-rule:nonzero;stroke:none"
           d="m 0,0 c -1.163,0.002 -2.019,1.397 -2.021,2.956 0.007,1.231 0.61,1.615 1.496,1.622 C 0.638,4.575 1.493,3.179 1.496,1.621 1.49,0.39 0.886,0.006 0,0 m -0.262,6.639 c -3.125,-0.004 -4.677,-1.879 -4.68,-4.35 0.003,-2.472 1.555,-4.348 4.68,-4.353 3.123,0.005 4.675,1.881 4.681,4.353 -0.006,2.471 -1.558,4.346 -4.681,4.35" />
      </g>
      <g
         transform="matrix(0.35277777,0,0,-0.35277777,102.00812,219.11692)"
         id="g12466">
        <path
           inkscape:connector-curvature="0"
           id="path12468"
           style="fill:#000000;fill-opacity:1;fill-rule:nonzero;stroke:none"
           d="m 0,0 c -1.118,0.365 -2.211,0.537 -2.192,1.095 0.003,0.251 0.164,0.463 0.561,0.467 0.429,10e-4 0.993,-0.014 1.273,-0.269 C -0.091,1.024 0.031,0.435 0.626,0.431 H 1.159 C 1.504,0.429 1.524,0.615 1.658,1.242 l 0.177,0.96 C 1.823,2.944 0.617,3.458 -1.331,3.462 -3.118,3.459 -4.908,2.623 -4.908,0.68 c 0,-1.415 1.133,-2.004 2.244,-2.377 1.117,-0.369 2.211,-0.566 2.192,-1.087 0.001,-0.421 -0.401,-0.629 -0.784,-0.647 -0.068,-0.002 -0.132,-0.003 -0.196,-0.003 -1.587,0.003 -1.879,0.811 -2.342,1.255 -0.107,0.092 -0.43,0.092 -0.436,0.096 -0.037,0.003 -0.077,0.006 -0.114,0.006 C -4.692,-2.076 -4.837,-2.304 -5.02,-3.136 -5.15,-3.718 -5.161,-3.997 -5.161,-4 l 0.039,-0.001 h -0.039 c 0.026,-0.964 2.323,-1.376 3.694,-1.386 2.216,0.003 3.708,0.917 3.712,2.891 C 2.246,-0.974 1.111,-0.368 0,0" />
      </g>
      <g
         transform="matrix(0.35277777,0,0,-0.35277777,99.319846,218.87967)"
         id="g12470">
        <path
           inkscape:connector-curvature="0"
           id="path12472"
           style="fill:#000000;fill-opacity:1;fill-rule:nonzero;stroke:none"
           d="m 0,0 c -0.083,-0.237 -0.711,-0.395 -1.483,-0.402 l -1.873,-0.009 c 0.258,0.843 1.141,1.569 2.052,1.569 h 0.003 c 0.212,0 0.425,-0.039 0.635,-0.124 C -0.267,0.872 0.05,0.574 0.048,0.235 0.048,0.16 0.033,0.082 0,0 m 0.802,-2.332 0.011,-0.037 c 1.185,0.337 1.519,1.084 1.515,2.072 0,0.054 -0.002,0.11 -0.003,0.166 -0.02,0.644 -0.818,3.053 -3.841,3.055 -0.021,0 -0.045,0 -0.067,-10e-4 -3.125,-0.032 -4.563,-2.016 -4.559,-4.485 0.004,-2.472 1.556,-4.347 4.68,-4.351 1.867,0.01 3.686,1.029 3.706,1.663 -0.01,0.332 -0.495,1.283 -0.974,1.301 -0.411,-0.009 -1.133,-0.758 -2.527,-0.758 -0.872,-0.005 -1.842,0.767 -1.947,1.336 h 4.006 z" />
      </g>
      <g
         transform="matrix(0.35277777,0,0,-0.35277777,100.18761,216.46987)"
         id="g12474">
        <path
           inkscape:connector-curvature="0"
           id="path12476"
           style="fill:#ed1d24;fill-opacity:1;fill-rule:nonzero;stroke:none"
           d="m 0,0 c -0.239,0.303 -0.637,0.65 -1.232,0.65 -0.057,0 -0.116,-0.002 -0.176,-0.009 -0.424,-0.045 -0.738,-0.392 -0.798,-0.678 -0.025,-0.115 -0.037,-0.226 -0.037,-0.335 0,-0.353 0.123,-0.684 0.34,-1.011 0.111,-0.168 0.521,-0.679 0.995,-1.133 0.181,-0.172 0.422,-0.373 0.618,-0.53 0.151,-0.121 0.274,-0.217 0.323,-0.254 0.049,0.037 0.173,0.133 0.324,0.254 0.196,0.157 0.437,0.358 0.617,0.53 0.475,0.454 0.883,0.967 0.997,1.133 0.203,0.296 0.336,0.655 0.336,1.028 0,0.105 -0.011,0.211 -0.034,0.318 C 2.213,0.249 1.898,0.596 1.474,0.641 1.414,0.648 1.355,0.65 1.298,0.65 0.705,0.65 0.307,0.303 0.067,0 0.059,-0.012 0.047,-0.018 0.034,-0.018 H 0.033 C 0.02,-0.018 0.008,-0.012 0,0" />
      </g>
      <g
         transform="matrix(0.35277777,0,0,-0.35277777,97.101438,217.95942)"
         id="g12478">
        <path
           inkscape:connector-curvature="0"
           id="path12480"
           style="fill:#000000;fill-opacity:1;fill-rule:nonzero;stroke:none"
           d="m 0,0 h -2.901 c -0.55,0 -0.835,-0.268 -0.842,-0.612 v -0.61 c 0.006,-0.323 0.261,-0.576 0.745,-0.606 0,-10e-4 0.001,-0.002 0.001,-0.003 0.264,-0.036 0.288,-0.2 0.296,-0.391 C -2.7,-2.35 -2.795,-2.57 -2.873,-2.806 L -4.11,-5.685 c 0,-0.002 -1.229,2.879 -1.229,2.879 -0.077,0.236 -0.171,0.456 -0.171,0.584 0.007,0.191 0.032,0.355 0.296,0.391 v 0.003 c 0.485,0.03 0.739,0.283 0.745,0.606 v 0.61 C -4.475,-0.268 -4.76,0 -5.31,0 H -8.211 C -8.76,0 -9.044,-0.268 -9.052,-0.612 v -0.55 c 0.007,-0.305 0.232,-0.549 0.664,-0.601 -10e-4,-0.002 -10e-4,-0.003 -10e-4,-0.004 0.153,-0.022 0.248,-0.104 0.379,-0.399 l 2.289,-5.753 c 0.117,-0.321 0.354,-0.426 0.614,-0.422 h 2.002 c 0.261,-0.004 0.497,0.101 0.616,0.422 l 2.289,5.753 c 0.13,0.295 0.226,0.377 0.379,0.399 0,10e-4 0,0.002 -0.001,0.004 0.432,0.052 0.657,0.296 0.663,0.601 v 0.55 C 0.834,-0.268 0.55,0 0,0" />
      </g>
      <g
         transform="matrix(0.35277777,0,0,-0.35277777,102.8448,221.00877)"
         id="g12482">
        <path
           inkscape:connector-curvature="0"
           id="path12484"
           style="fill:#000000;fill-opacity:1;fill-rule:nonzero;stroke:none"
           d="M 0,0 H 0.057 C 0.125,0 0.182,0.022 0.182,0.078 0.182,0.126 0.146,0.159 0.067,0.159 0.035,0.159 0.012,0.155 0,0.152 Z m -0.004,-0.3 h -0.124 v 0.53 c 0.049,0.01 0.117,0.021 0.205,0.021 0.101,0 0.147,-0.017 0.186,-0.043 0.029,-0.023 0.052,-0.066 0.052,-0.114 0,-0.062 -0.046,-0.108 -0.11,-0.127 V -0.039 C 0.256,-0.056 0.285,-0.098 0.301,-0.17 0.319,-0.252 0.328,-0.283 0.342,-0.3 H 0.208 c -0.017,0.02 -0.026,0.065 -0.043,0.126 -0.009,0.059 -0.042,0.085 -0.111,0.085 h -0.058 z m 0.081,0.703 c -0.235,0 -0.41,-0.193 -0.41,-0.427 0,-0.237 0.175,-0.426 0.417,-0.426 0.235,-0.003 0.407,0.189 0.407,0.426 0,0.234 -0.172,0.427 -0.411,0.427 z M 0.084,0.51 c 0.306,0 0.543,-0.238 0.543,-0.534 0,-0.302 -0.237,-0.537 -0.547,-0.537 -0.305,0 -0.55,0.235 -0.55,0.537 0,0.296 0.245,0.534 0.55,0.534 z" />
      </g>
      <g
         transform="matrix(0.35277777,0,0,-0.35277777,83.796037,221.11561)"
         id="g12486">
        <path
           inkscape:connector-curvature="0"
           id="path12488"
           style="fill:#ed1d24;fill-opacity:1;fill-rule:nonzero;stroke:none"
           d="M 0,0 0.058,0.084 -0.025,0.017 c -0.158,0.109 -0.506,0.349 -0.927,0.652 -0.526,0.377 -1.269,0.926 -1.82,1.398 -1.402,1.196 -2.607,2.538 -2.94,2.99 -0.683,0.92 -1.015,1.808 -1.015,2.715 0,0.297 0.037,0.601 0.108,0.903 0.186,0.798 1.169,1.737 2.434,1.858 0.181,0.018 0.357,0.027 0.527,0.027 1.426,0 2.669,-0.587 3.696,-1.744 L 0.042,8.82 0.079,8.818 c 1.027,1.155 2.27,1.742 3.694,1.742 0.17,0 0.345,-0.009 0.526,-0.027 C 5.581,10.41 6.544,9.491 6.735,8.674 6.801,8.392 6.835,8.102 6.835,7.814 6.836,6.884 6.478,5.904 5.828,5.057 5.498,4.626 4.299,3.273 2.888,2.067 2.335,1.594 1.593,1.045 1.068,0.669 0.645,0.364 0.294,0.123 0.138,0.015 l -0.059,-0.04 z" />
      </g>
      <g
         transform="matrix(0.35277777,0,0,-0.35277777,85.126891,217.35448)"
         id="g12490">
        <path
           inkscape:connector-curvature="0"
           id="path12492"
           style="fill:#000000;fill-opacity:1;fill-rule:nonzero;stroke:none"
           d="M 0,0 C -1.43,0 -2.68,-0.577 -3.716,-1.716 -4.761,-0.572 -6.006,0 -7.43,0 c -0.176,0 -0.357,-0.009 -0.537,-0.027 -1.328,-0.127 -2.326,-1.085 -2.525,-1.938 -0.073,-0.308 -0.111,-0.619 -0.111,-0.925 0,-0.929 0.339,-1.837 1.035,-2.775 0.337,-0.456 1.549,-1.805 2.957,-3.007 0.554,-0.474 1.299,-1.025 1.826,-1.404 0.423,-0.304 0.774,-0.546 0.931,-0.654 l 0.023,-0.016 0.116,-0.08 0.115,0.08 0.02,0.014 c 0.156,0.107 0.508,0.35 0.934,0.656 0.526,0.378 1.271,0.928 1.827,1.404 1.418,1.211 2.624,2.571 2.956,3.006 0.663,0.865 1.028,1.866 1.028,2.819 0,0.296 -0.035,0.593 -0.104,0.883 -0.198,0.852 -1.197,1.81 -2.525,1.937 C 0.356,-0.009 0.176,0 0,0 m 0,-0.204 c 0.166,0 0.339,-0.009 0.516,-0.026 1.247,-0.12 2.172,-1.03 2.347,-1.781 0.066,-0.28 0.098,-0.559 0.098,-0.836 0,-0.976 -0.391,-1.919 -0.987,-2.695 C 1.64,-5.98 0.443,-7.326 -0.951,-8.517 -1.481,-8.97 -2.19,-9.497 -2.765,-9.91 c -0.443,-0.319 -0.806,-0.568 -0.95,-0.668 -0.144,0.1 -0.508,0.349 -0.951,0.668 -0.574,0.413 -1.283,0.94 -1.812,1.393 -1.395,1.191 -2.601,2.534 -2.925,2.974 -0.637,0.857 -0.995,1.726 -0.996,2.653 10e-4,0.286 0.035,0.578 0.106,0.879 0.175,0.751 1.101,1.661 2.346,1.781 0.177,0.017 0.35,0.026 0.517,0.026 1.747,0 2.912,-0.913 3.619,-1.709 0.021,-0.03 0.057,-0.048 0.096,-0.048 0.039,0 0.075,0.019 0.097,0.049 0.707,0.796 1.872,1.708 3.618,1.708" />
      </g>
      <g
         transform="matrix(0.35277777,0,0,-0.35277777,84.24858,220.7494)"
         id="g12494">
        <path
           inkscape:connector-curvature="0"
           id="path12496"
           style="fill:#f58220;fill-opacity:1;fill-rule:nonzero;stroke:none"
           d="m 0,0 c -0.144,0.099 -0.509,0.35 -0.952,0.669 -0.524,0.376 -1.266,0.924 -1.821,1.399 -1.4,1.195 -2.605,2.537 -2.94,2.989 -0.682,0.921 -1.014,1.81 -1.014,2.715 0,0.296 0.036,0.6 0.108,0.902 0.186,0.8 1.169,1.738 2.434,1.86 0.181,0.018 0.357,0.026 0.527,0.026 1.425,0 2.668,-0.586 3.696,-1.743 1.066,1.156 2.309,1.743 3.735,1.743 0.17,0 0.345,-0.009 0.526,-0.026 1.265,-0.122 2.25,-1.06 2.435,-1.86 C 6.801,8.394 6.835,8.105 6.835,7.815 6.835,6.885 6.478,5.905 5.828,5.057 5.496,4.624 4.294,3.269 2.888,2.068 2.332,1.592 1.591,1.045 1.068,0.669 0.623,0.35 0.26,0.099 0.115,0 L 0.057,-0.039 Z" />
      </g>
      <g
         transform="matrix(0.35277777,0,0,-0.35277777,85.579469,216.98803)"
         id="g12498">
        <path
           inkscape:connector-curvature="0"
           id="path12500"
           style="fill:#000000;fill-opacity:1;fill-rule:nonzero;stroke:none"
           d="M 0,0 C -1.43,0 -2.679,-0.577 -3.715,-1.715 -4.752,-0.577 -6.001,0 -7.43,0 c -0.181,0 -0.361,-0.009 -0.538,-0.027 -1.327,-0.127 -2.325,-1.085 -2.524,-1.938 -0.073,-0.31 -0.111,-0.621 -0.111,-0.925 10e-4,-0.928 0.339,-1.837 1.035,-2.775 0.337,-0.456 1.55,-1.807 2.957,-3.007 0.557,-0.477 1.301,-1.027 1.827,-1.404 0.448,-0.322 0.815,-0.576 0.953,-0.671 l 0.115,-0.078 0.115,0.078 c 0.071,0.048 0.449,0.307 0.955,0.671 0.525,0.377 1.269,0.926 1.827,1.404 1.413,1.206 2.621,2.569 2.956,3.005 0.663,0.865 1.028,1.867 1.028,2.82 0,0.298 -0.035,0.595 -0.104,0.883 -0.198,0.852 -1.196,1.81 -2.525,1.937 C 0.354,-0.009 0.174,0 0,0 m 0,-0.204 c 0.167,0 0.339,-0.009 0.517,-0.026 1.245,-0.12 2.171,-1.03 2.346,-1.781 0.066,-0.28 0.098,-0.56 0.098,-0.836 0,-0.976 -0.391,-1.919 -0.986,-2.695 C 1.64,-5.979 0.443,-7.326 -0.951,-8.517 -1.481,-8.97 -2.19,-9.498 -2.765,-9.91 c -0.443,-0.319 -0.806,-0.57 -0.95,-0.668 -0.144,0.098 -0.508,0.349 -0.949,0.668 -0.576,0.412 -1.285,0.94 -1.814,1.393 -1.395,1.19 -2.6,2.533 -2.926,2.973 -0.636,0.858 -0.994,1.727 -0.994,2.654 0,0.286 0.034,0.578 0.105,0.879 0.175,0.751 1.101,1.661 2.346,1.781 0.178,0.018 0.35,0.026 0.517,0.026 1.747,0 2.912,-0.914 3.618,-1.709 0.022,-0.031 0.058,-0.049 0.096,-0.049 h 0.001 c 0.038,0 0.073,0.018 0.095,0.047 0.707,0.797 1.872,1.711 3.62,1.711" />
      </g>
      <g
         transform="matrix(0.35277777,0,0,-0.35277777,84.701123,220.38301)"
         id="g12502">
        <path
           inkscape:connector-curvature="0"
           id="path12504"
           style="fill:#ffe100;fill-opacity:1;fill-rule:nonzero;stroke:none"
           d="m 0,0 c -0.144,0.099 -0.508,0.35 -0.952,0.668 -0.768,0.551 -1.38,1.022 -1.821,1.399 -1.401,1.197 -2.607,2.538 -2.94,2.989 -0.683,0.922 -1.015,1.811 -1.015,2.716 0,0.294 0.037,0.598 0.109,0.903 0.186,0.799 1.17,1.737 2.434,1.858 0.181,0.018 0.357,0.027 0.527,0.027 1.425,0 2.668,-0.587 3.694,-1.742 L 0.039,8.822 0.078,8.816 c 1.026,1.157 2.27,1.744 3.695,1.744 0.17,0 0.346,-0.009 0.527,-0.027 C 5.564,10.412 6.548,9.474 6.734,8.674 6.801,8.394 6.835,8.105 6.835,7.815 6.835,6.884 6.478,5.905 5.828,5.057 5.5,4.627 4.304,3.277 2.888,2.067 2.447,1.69 1.834,1.219 1.067,0.668 0.623,0.35 0.259,0.099 0.115,0 L 0.058,-0.039 Z" />
      </g>
      <g
         transform="matrix(0.35277777,0,0,-0.35277777,86.032013,216.62172)"
         id="g12506">
        <path
           inkscape:connector-curvature="0"
           id="path12508"
           style="fill:#000000;fill-opacity:1;fill-rule:nonzero;stroke:none"
           d="M 0,0 V 0 C -1.43,0 -2.679,-0.577 -3.715,-1.715 -4.751,-0.578 -6,0 -7.43,0 c -0.174,0 -0.355,-0.009 -0.537,-0.027 -1.327,-0.127 -2.326,-1.085 -2.525,-1.938 -0.074,-0.311 -0.111,-0.623 -0.111,-0.925 0,-0.928 0.339,-1.836 1.035,-2.776 0.336,-0.455 1.549,-1.804 2.957,-3.007 0.443,-0.378 1.058,-0.851 1.827,-1.404 0.506,-0.364 0.883,-0.622 0.953,-0.67 l 0.116,-0.078 0.115,0.079 c 0.144,0.099 0.509,0.35 0.953,0.669 0.77,0.553 1.385,1.026 1.828,1.405 1.423,1.214 2.626,2.573 2.956,3.006 0.663,0.864 1.028,1.866 1.028,2.819 0,0.298 -0.035,0.595 -0.104,0.883 -0.198,0.852 -1.197,1.81 -2.525,1.937 C 0.355,-0.009 0.174,0 0,0 m 0,-0.204 c 0.166,0 0.339,-0.009 0.517,-0.026 C 1.762,-0.349 2.688,-1.26 2.862,-2.011 2.929,-2.291 2.96,-2.57 2.96,-2.847 2.961,-3.824 2.57,-4.766 1.975,-5.542 1.641,-5.98 0.443,-7.327 -0.952,-8.517 -1.481,-8.971 -2.19,-9.498 -2.766,-9.911 c -0.443,-0.318 -0.806,-0.569 -0.949,-0.667 -0.144,0.098 -0.508,0.349 -0.95,0.667 -0.575,0.413 -1.284,0.94 -1.814,1.394 -1.394,1.19 -2.6,2.533 -2.925,2.973 -0.636,0.858 -0.994,1.727 -0.995,2.654 0,0.286 0.035,0.578 0.107,0.879 0.174,0.751 1.1,1.662 2.345,1.781 0.178,0.017 0.35,0.026 0.517,0.026 1.746,-0.001 2.91,-0.912 3.617,-1.708 0.021,-0.031 0.058,-0.05 0.097,-0.05 h 0.001 c 0.038,0 0.074,0.018 0.096,0.048 0.706,0.797 1.872,1.709 3.619,1.71" />
      </g>
      <g
         transform="matrix(0.35277777,0,0,-0.35277777,85.153702,220.01661)"
         id="g12510">
        <path
           inkscape:connector-curvature="0"
           id="path12512"
           style="fill:#ed1d24;fill-opacity:1;fill-rule:nonzero;stroke:none"
           d="m 0,0 c -0.144,0.099 -0.509,0.349 -0.952,0.668 -0.768,0.552 -1.38,1.023 -1.821,1.399 -1.399,1.195 -2.605,2.538 -2.94,2.99 -0.683,0.921 -1.015,1.81 -1.015,2.715 0,0.296 0.037,0.6 0.109,0.902 0.186,0.799 1.17,1.738 2.434,1.859 0.181,0.018 0.357,0.027 0.527,0.027 1.425,-0.001 2.668,-0.587 3.695,-1.743 1.067,1.156 2.31,1.742 3.736,1.743 0.17,0 0.346,-0.009 0.527,-0.027 C 5.564,10.412 6.548,9.473 6.734,8.674 6.801,8.393 6.835,8.104 6.835,7.815 6.835,6.884 6.478,5.905 5.828,5.057 5.498,4.626 4.3,3.273 2.888,2.067 2.45,1.693 1.838,1.222 1.067,0.668 0.623,0.349 0.26,0.099 0.115,0 L 0.058,-0.039 Z" />
      </g>
      <g
         transform="matrix(0.35277777,0,0,-0.35277777,86.484591,216.25543)"
         id="g12514">
        <path
           inkscape:connector-curvature="0"
           id="path12516"
           style="fill:#000000;fill-opacity:1;fill-rule:nonzero;stroke:none"
           d="M 0,0 V 0 C -1.431,0 -2.68,-0.578 -3.716,-1.716 -4.76,-0.573 -6.006,0 -7.43,0 c -0.177,0 -0.358,-0.009 -0.538,-0.027 -1.327,-0.127 -2.325,-1.085 -2.524,-1.938 -0.073,-0.309 -0.111,-0.621 -0.111,-0.925 0,-0.928 0.339,-1.836 1.035,-2.776 0.337,-0.455 1.551,-1.805 2.957,-3.007 0.442,-0.378 1.056,-0.85 1.826,-1.403 0.42,-0.303 0.778,-0.55 0.954,-0.67 l 0.115,-0.079 0.115,0.079 c 0.139,0.094 0.508,0.349 0.955,0.67 0.772,0.555 1.387,1.028 1.827,1.403 1.419,1.212 2.624,2.573 2.956,3.007 0.663,0.865 1.028,1.867 1.028,2.819 0,0.297 -0.035,0.595 -0.104,0.883 -0.198,0.852 -1.197,1.81 -2.525,1.937 C 0.357,-0.009 0.176,0 0,0 m 0,-0.204 c 0.167,0 0.339,-0.009 0.517,-0.026 1.246,-0.12 2.171,-1.03 2.346,-1.781 0.066,-0.28 0.098,-0.56 0.098,-0.836 0,-0.977 -0.391,-1.919 -0.986,-2.695 -0.334,-0.437 -1.533,-1.785 -2.927,-2.975 -0.529,-0.453 -1.238,-0.98 -1.814,-1.393 -0.443,-0.319 -0.806,-0.569 -0.95,-0.667 -0.144,0.098 -0.507,0.348 -0.95,0.667 -0.574,0.413 -1.283,0.94 -1.812,1.393 -1.395,1.19 -2.601,2.533 -2.926,2.973 -0.636,0.858 -0.995,1.727 -0.995,2.654 0,0.286 0.035,0.578 0.107,0.879 0.174,0.751 1.1,1.661 2.345,1.781 0.177,0.017 0.35,0.026 0.517,0.026 1.746,0 2.91,-0.913 3.617,-1.709 0.023,-0.03 0.058,-0.049 0.097,-0.049 h 0.001 c 0.038,0 0.073,0.019 0.096,0.049 0.706,0.796 1.872,1.709 3.619,1.709" />
      </g>
    </g>
  </g>
</svg>
